<?xml version="1.0" encoding="UTF-8" standalone="no"?>
<!-- Created with Inkscape (http://www.inkscape.org/) -->

<svg
   xmlns:dc="http://purl.org/dc/elements/1.1/"
   xmlns:cc="http://creativecommons.org/ns#"
   xmlns:rdf="http://www.w3.org/1999/02/22-rdf-syntax-ns#"
   xmlns:svg="http://www.w3.org/2000/svg"
   xmlns="http://www.w3.org/2000/svg"
   xmlns:xlink="http://www.w3.org/1999/xlink"
   xmlns:sodipodi="http://sodipodi.sourceforge.net/DTD/sodipodi-0.dtd"
   xmlns:inkscape="http://www.inkscape.org/namespaces/inkscape"
   width="846.21875"
   height="218.1875"
   id="svg2"
   version="1.1"
   inkscape:version="0.48.4 r9939"
   sodipodi:docname="logo.svg"
   inkscape:export-filename="/home/sdemingo/Escritorio/logo-nomadas/logo.png"
   inkscape:export-xdpi="90"
   inkscape:export-ydpi="90">
  <defs
     id="defs4">
    <radialGradient
       inkscape:collect="always"
       r="26.356001"
       gradientTransform="matrix(0.48832,0.68519,-0.53405,1.5958,380.63,-419.72)"
       cx="-119.23"
       cy="826.96002"
       gradientUnits="userSpaceOnUse"
       xlink:href="#linearGradient4252"
       id="radialGradient4813" />
    <linearGradient
       inkscape:collect="always"
       id="linearGradient4252">
      <stop
         offset="0"
         style="stop-color:#eeeeee"
         id="stop4254" />
      <stop
         offset="1"
         style="stop-color:#eeeeee;stop-opacity:0"
         id="stop4256" />
    </linearGradient>
    <radialGradient
       inkscape:collect="always"
       xlink:href="#linearGradient4252"
       id="radialGradient3247"
       gradientUnits="userSpaceOnUse"
       gradientTransform="matrix(0.48832,0.68519,-0.53405,1.5958,380.63,-419.72)"
       cx="-119.23"
       cy="826.96002"
       r="26.356001" />
    <radialGradient
       inkscape:collect="always"
       xlink:href="#linearGradient4252"
       id="radialGradient4224"
       gradientUnits="userSpaceOnUse"
       gradientTransform="matrix(0.48832,0.68519,-0.53405,1.5958,380.63,-419.72)"
       cx="-119.23"
       cy="826.96002"
       r="26.356001" />
    <radialGradient
       inkscape:collect="always"
       xlink:href="#linearGradient4252"
       id="radialGradient4226"
       gradientUnits="userSpaceOnUse"
       gradientTransform="matrix(0.48832,0.68519,-0.53405,1.5958,380.63,-419.72)"
       cx="-119.23"
       cy="826.96002"
       r="26.356001" />
  </defs>
  <sodipodi:namedview
     id="base"
     pagecolor="#ffffff"
     bordercolor="#666666"
     borderopacity="1.0"
     inkscape:pageopacity="0"
     inkscape:pageshadow="2"
     inkscape:zoom="0.49497475"
     inkscape:cx="-95.963403"
     inkscape:cy="24.448995"
     inkscape:document-units="px"
     inkscape:current-layer="layer1"
     showgrid="false"
     inkscape:window-width="1366"
     inkscape:window-height="719"
     inkscape:window-x="0"
     inkscape:window-y="0"
     inkscape:window-maximized="1"
     fit-margin-top="0"
     fit-margin-left="0"
     fit-margin-right="0"
     fit-margin-bottom="0"
     showborder="true"
     inkscape:showpageshadow="false" />
  <metadata
     id="metadata7">
    <rdf:RDF>
      <cc:Work
         rdf:about="">
        <dc:format>image/svg+xml</dc:format>
        <dc:type
           rdf:resource="http://purl.org/dc/dcmitype/StillImage" />
        <dc:title></dc:title>
      </cc:Work>
    </rdf:RDF>
  </metadata>
  <g
     inkscape:label="Capa 1"
     inkscape:groupmode="layer"
     id="layer1"
     transform="translate(-238.40972,-446.28311)">
    <path
       style="fill:#00936c;fill-opacity:0.18807343"
       d="m 145.75,47.21875 c -60.252318,0 -109.09375,48.841432 -109.09375,109.09375 0,60.25232 48.841432,109.09375 109.09375,109.09375 27.11185,0 51.88734,-9.91255 70.96875,-26.28125 l 655.03125,0 c 6.15587,0 11.125,-4.93788 11.125,-11.09375 0,-6.15587 -4.96913,-11.125 -11.125,-11.125 l -635.28125,0 c 11.60171,-17.33432 18.375,-38.16895 18.375,-60.59375 0,-60.252318 -48.84143,-109.09375 -109.09375,-109.09375 z"
       transform="translate(201.75347,399.06436)"
       id="path3261"
       inkscape:connector-curvature="0" />
    <text
       xml:space="preserve"
       style="font-size:102.83327484px;font-style:normal;font-weight:normal;line-height:125%;letter-spacing:0px;word-spacing:0px;fill:#008080;fill-opacity:0.73853215;stroke:none;font-family:Sans"
       id="text3249"
       sodipodi:linespacing="125%"
       transform="matrix(0.9999786,0.00654216,-0.00654216,0.9999786,0,0)"
       x="521.03186"
       y="579.60638"><tspan
         id="tspan3251"
         style="font-size:144px;font-style:normal;font-variant:normal;font-weight:bold;font-stretch:normal;fill:#008080;fill-opacity:0.73853215;font-family:Lobster Two;-inkscape-font-specification:Lobster Two Bold">Nómadas</tspan></text>
    <g
       transform="matrix(0.72443117,0,0,0.72443117,258.30889,-119.78087)"
       inkscape:label="Layer 1"
       id="layer1-6">
      <g
         transform="matrix(0.14827,-0.019204,0,0.13885,111.94,829.18)"
         style="stroke:#3d3e44;stroke-width:15.14799976"
         id="g3654">
        <path
           d="m 538.94,1021.3 c 4.2872,69.571 0.50999,152.33 -20.323,150.16 -8.7967,-0.9165 -25.187,-7.8511 -32.673,-39.467 -4.7741,-20.162 -6.9422,-55.198 -6.9422,-81.072 0,-51.113 4.9869,-93.868 22.467,-101.88 19.482,-8.9299 37.472,21.152 37.472,72.265 z"
           transform="matrix(2.7854,-0.41799,0,1.4719,-648.97,-292.66)"
           sodipodi:nodetypes="cssssc"
           style="fill:#000000;fill-rule:evenodd;stroke:#3d3e44;stroke-width:7.48120022;stroke-linecap:round;stroke-linejoin:round"
           id="path3656"
           inkscape:connector-curvature="0" />
        <path
           sodipodi:cx="516.47815"
           sodipodi:cy="1050.8695"
           transform="matrix(1.5344,-0.23343,0,1.1675,-1.333,-61.968)"
           d="m 544.83967,1050.8695 c 0,51.1129 -12.69789,92.5481 -28.36152,92.5481 -15.66363,0 -28.36152,-41.4352 -28.36152,-92.5481 0,-51.1129 12.69789,-92.5481 28.36152,-92.5481 15.66363,0 28.36152,41.4352 28.36152,92.5481 z"
           sodipodi:type="arc"
           style="fill:#333333;fill-rule:evenodd;stroke:#3d3e44;stroke-width:11.31799984;stroke-linecap:round;stroke-linejoin:round"
           sodipodi:ry="92.548103"
           sodipodi:rx="28.361517"
           id="path3658" />
        <path
           sodipodi:cx="516.47815"
           sodipodi:cy="1050.8695"
           transform="matrix(1.5344,-0.23343,0,1.1675,1.6524,-53.431)"
           d="m 544.83967,1050.8695 c 0,51.1129 -12.69789,92.5481 -28.36152,92.5481 -15.66363,0 -28.36152,-41.4352 -28.36152,-92.5481 0,-51.1129 12.69789,-92.5481 28.36152,-92.5481 15.66363,0 28.36152,41.4352 28.36152,92.5481 z"
           sodipodi:type="arc"
           style="fill:#666666;fill-rule:evenodd;stroke:#3d3e44;stroke-width:11.31799984;stroke-linecap:round;stroke-linejoin:round"
           sodipodi:ry="92.548103"
           sodipodi:rx="28.361517"
           id="path3660" />
        <path
           sodipodi:cx="516.47815"
           sodipodi:cy="1050.8695"
           transform="matrix(1.3132,-0.19979,0,0.99923,117.36,102.08)"
           d="m 544.83967,1050.8695 c 0,51.1129 -12.69789,92.5481 -28.36152,92.5481 -15.66363,0 -28.36152,-41.4352 -28.36152,-92.5481 0,-51.1129 12.69789,-92.5481 28.36152,-92.5481 15.66363,0 28.36152,41.4352 28.36152,92.5481 z"
           sodipodi:type="arc"
           style="fill:#eeeeee;fill-rule:evenodd;stroke:#3d3e44;stroke-width:13.22299957;stroke-linecap:round;stroke-linejoin:round"
           sodipodi:ry="92.548103"
           sodipodi:rx="28.361517"
           id="path3662" />
        <path
           d="m 780.69,1114.7 c -14.927,-17.251 -19.154,-62.49 -14.927,-88.958 2.5919,-16.232 6.5454,-44.754 23.883,-37.689 21.411,8.7246 24.777,62 23.883,68.294 -7.4636,52.548 -30.504,61.052 -32.84,58.353 z"
           style="fill:#99979c;stroke:#3d3e44;stroke-width:15.14799976"
           sodipodi:nodetypes="cssss"
           id="path3664"
           inkscape:connector-curvature="0" />
      </g>
      <g
         transform="matrix(0.21796,-0.028752,0,0.20789,-7.738,785.2)"
         style="stroke:#3d3e44;stroke-width:10.21000004"
         id="g3647">
        <path
           d="m 538.94,1021.3 c 4.2872,69.571 0.50999,152.33 -20.323,150.16 -8.7967,-0.9165 -25.187,-7.8511 -32.673,-39.467 -4.7741,-20.162 -6.9422,-55.198 -6.9422,-81.072 0,-51.113 4.9869,-93.868 22.467,-101.88 19.482,-8.9299 37.472,21.152 37.472,72.265 z"
           transform="matrix(2.7854,-0.41799,0,1.4719,-648.97,-292.66)"
           style="fill:#000000;fill-rule:evenodd;stroke:#3d3e44;stroke-width:5.04269981;stroke-linecap:round;stroke-linejoin:round"
           sodipodi:nodetypes="cssssc"
           id="path3644"
           inkscape:connector-curvature="0" />
        <path
           sodipodi:cx="516.47815"
           sodipodi:cy="1050.8695"
           transform="matrix(1.5344,-0.23343,0,1.1675,-1.333,-61.968)"
           d="m 544.83967,1050.8695 c 0,51.1129 -12.69789,92.5481 -28.36152,92.5481 -15.66363,0 -28.36152,-41.4352 -28.36152,-92.5481 0,-51.1129 12.69789,-92.5481 28.36152,-92.5481 15.66363,0 28.36152,41.4352 28.36152,92.5481 z"
           sodipodi:type="arc"
           style="fill:#333333;fill-rule:evenodd;stroke:#3d3e44;stroke-width:7.62860012;stroke-linecap:round;stroke-linejoin:round"
           sodipodi:ry="92.548103"
           sodipodi:rx="28.361517"
           id="path3642" />
        <path
           sodipodi:cx="516.47815"
           sodipodi:cy="1050.8695"
           transform="matrix(1.5344,-0.23343,0,1.1675,1.6524,-53.431)"
           d="m 544.83967,1050.8695 c 0,51.1129 -12.69789,92.5481 -28.36152,92.5481 -15.66363,0 -28.36152,-41.4352 -28.36152,-92.5481 0,-51.1129 12.69789,-92.5481 28.36152,-92.5481 15.66363,0 28.36152,41.4352 28.36152,92.5481 z"
           sodipodi:type="arc"
           style="fill:#666666;fill-rule:evenodd;stroke:#3d3e44;stroke-width:7.62860012;stroke-linecap:round;stroke-linejoin:round"
           sodipodi:ry="92.548103"
           sodipodi:rx="28.361517"
           id="path3640" />
        <path
           sodipodi:cx="516.47815"
           sodipodi:cy="1050.8695"
           transform="matrix(1.3132,-0.19979,0,0.99923,117.36,102.08)"
           d="m 544.83967,1050.8695 c 0,51.1129 -12.69789,92.5481 -28.36152,92.5481 -15.66363,0 -28.36152,-41.4352 -28.36152,-92.5481 0,-51.1129 12.69789,-92.5481 28.36152,-92.5481 15.66363,0 28.36152,41.4352 28.36152,92.5481 z"
           sodipodi:type="arc"
           style="fill:#eeeeee;fill-rule:evenodd;stroke:#3d3e44;stroke-width:8.91329956;stroke-linecap:round;stroke-linejoin:round"
           sodipodi:ry="92.548103"
           sodipodi:rx="28.361517"
           id="path3619" />
        <path
           d="m 780.69,1114.7 c -14.927,-17.251 -19.154,-62.49 -14.927,-88.958 2.5919,-16.232 6.5454,-44.754 23.883,-37.689 21.411,8.7246 24.777,62 23.883,68.294 -7.4636,52.548 -30.504,61.052 -32.84,58.353 z"
           style="fill:#99979c;stroke:#3d3e44;stroke-width:10.21000004"
           sodipodi:nodetypes="cssss"
           id="path3617"
           inkscape:connector-curvature="0" />
      </g>
      <g
         transform="matrix(0.17361,-0.018943,0,0.13696,-96.83,854.19)"
         style="stroke:#3d3e44;stroke-width:14.09500027"
         id="g3666">
        <path
           d="m 538.94,1021.3 c 4.2872,69.571 0.50999,152.33 -20.323,150.16 -8.7967,-0.9165 -25.187,-7.8511 -32.673,-39.467 -4.7741,-20.162 -6.9422,-55.198 -6.9422,-81.072 0,-51.113 4.9869,-93.868 22.467,-101.88 19.482,-8.9299 37.472,21.152 37.472,72.265 z"
           transform="matrix(2.7854,-0.41799,0,1.4719,-648.97,-292.66)"
           style="fill:#000000;fill-rule:evenodd;stroke:#3d3e44;stroke-width:6.9611001;stroke-linecap:round;stroke-linejoin:round"
           sodipodi:nodetypes="cssssc"
           id="path3668"
           inkscape:connector-curvature="0" />
        <path
           sodipodi:cx="516.47815"
           sodipodi:cy="1050.8695"
           transform="matrix(1.5344,-0.23343,0,1.1675,-1.333,-61.968)"
           d="m 544.83967,1050.8695 c 0,51.1129 -12.69789,92.5481 -28.36152,92.5481 -15.66363,0 -28.36152,-41.4352 -28.36152,-92.5481 0,-51.1129 12.69789,-92.5481 28.36152,-92.5481 15.66363,0 28.36152,41.4352 28.36152,92.5481 z"
           sodipodi:type="arc"
           style="fill:#333333;fill-rule:evenodd;stroke:#3d3e44;stroke-width:10.53100014;stroke-linecap:round;stroke-linejoin:round"
           sodipodi:ry="92.548103"
           sodipodi:rx="28.361517"
           id="path3670" />
        <path
           sodipodi:cx="516.47815"
           sodipodi:cy="1050.8695"
           transform="matrix(1.5344,-0.23343,0,1.1675,1.6524,-53.431)"
           d="m 544.83967,1050.8695 c 0,51.1129 -12.69789,92.5481 -28.36152,92.5481 -15.66363,0 -28.36152,-41.4352 -28.36152,-92.5481 0,-51.1129 12.69789,-92.5481 28.36152,-92.5481 15.66363,0 28.36152,41.4352 28.36152,92.5481 z"
           sodipodi:type="arc"
           style="fill:#666666;fill-rule:evenodd;stroke:#3d3e44;stroke-width:10.53100014;stroke-linecap:round;stroke-linejoin:round"
           sodipodi:ry="92.548103"
           sodipodi:rx="28.361517"
           id="path3672" />
        <path
           sodipodi:cx="516.47815"
           sodipodi:cy="1050.8695"
           transform="matrix(1.3132,-0.19979,0,0.99923,117.36,102.08)"
           d="m 544.83967,1050.8695 c 0,51.1129 -12.69789,92.5481 -28.36152,92.5481 -15.66363,0 -28.36152,-41.4352 -28.36152,-92.5481 0,-51.1129 12.69789,-92.5481 28.36152,-92.5481 15.66363,0 28.36152,41.4352 28.36152,92.5481 z"
           sodipodi:type="arc"
           style="fill:#eeeeee;fill-rule:evenodd;stroke:#3d3e44;stroke-width:12.3039999;stroke-linecap:round;stroke-linejoin:round"
           sodipodi:ry="92.548103"
           sodipodi:rx="28.361517"
           id="path3674" />
        <path
           d="m 780.69,1114.7 c -14.927,-17.251 -19.154,-62.49 -14.927,-88.958 2.5919,-16.232 6.5454,-44.754 23.883,-37.689 21.411,8.7246 24.777,62 23.883,68.294 -7.4636,52.548 -30.504,61.052 -32.84,58.353 z"
           style="fill:#99979c;stroke:#3d3e44;stroke-width:14.09500027"
           sodipodi:nodetypes="cssss"
           id="path3676"
           inkscape:connector-curvature="0" />
      </g>
      <path
         d="m 7.3512,983.68 c 0,0 -5.4013,-53.864 0.36637,-80.115 3.3885,-15.422 19.784,-43.954 19.784,-43.954 l 99.652,-2.4938 c 2.5901,45.865 -2.5427,92.064 -1.8318,137.16 -39.145,-1.4127 -77.92,1.5935 -117.97,-10.599 z"
         style="fill:#336699;stroke:#3d3e44;stroke-width:2.17339993"
         sodipodi:nodetypes="cscccc"
         id="path3604"
         inkscape:connector-curvature="0" />
      <path
         d="m 26.402,858.68 98.186,-0.93519 108.81,6.2346 c 0,0 -12.329,-15.576 -106.61,-21.821 -60.328,-3.99 -106.12,10.67 -100.39,16.53 z"
         style="fill:#f2f6f9;stroke:#3d3e44;stroke-width:2.17339993"
         sodipodi:nodetypes="cccsc"
         id="path3606"
         inkscape:connector-curvature="0" />
      <path
         d="m 125.69,994.28 c -2.2699,-45.795 -0.74608,-90.944 1.8318,-135.91 l 105.88,5.6112 c 11.61,29.244 8.5389,57.595 6.961,86.038 l -1.4655,2.4938 -0.36637,-9.9754 -14.288,4.3642 -2.1982,15.275 -47.261,23.068 c 0,0 4.9434,-26.892 -6.2282,-28.367 -13.012,-1.7186 -18.685,29.614 -18.685,29.614 l -24.18,7.7933 z"
         style="fill:#336699;stroke:#3d3e44;stroke-width:2.17339993"
         sodipodi:nodetypes="cccccccccscc"
         id="path3608"
         inkscape:connector-curvature="0" />
      <path
         d="m 34.677,861.58 29.246,-0.8303 c 3.9754,0.22612 1.6803,1.267 1.6803,4.6571 l -8.4264,28.91 c 0,3.3901 -5.765,6.249 -9.7404,6.0229 l -29.979,-0.1049 c -3.9754,-0.22612 -3.1458,-1.5787 -3.1458,-4.9688 l 13.189,-27.975 c 0,-3.3901 3.2004,-5.9373 7.1758,-5.7111 z"
         style="fill:#cccccf;fill-rule:evenodd;stroke:#3d3e44;stroke-width:2.17339993;stroke-linecap:round;stroke-linejoin:round"
         sodipodi:nodetypes="ccccccccc"
         id="rect3610"
         inkscape:connector-curvature="0" />
      <path
         d="m 77.829,861.41 40.236,-0.76099 c 3.6436,0.20725 6.2411,3.7326 6.2411,6.8398 l -3.3579,25.068 c 0,3.1071 -4.2764,6.0131 -7.92,5.8059 l -48.295,1.0467 c -3.6436,-0.20725 -2.8832,-1.447 -2.8832,-4.5541 l 8.7305,-29.068 c 0,-3.1071 3.6049,-4.5846 7.2484,-4.3773 z"
         style="fill:#cccccf;fill-rule:evenodd;stroke:#3d3e44;stroke-width:1.99199998;stroke-linecap:round;stroke-linejoin:round"
         sodipodi:nodetypes="ccccccccc"
         id="path3613"
         inkscape:connector-curvature="0" />
      <path
         sodipodi:cx="-106.35575"
         sodipodi:cy="836.29205"
         transform="matrix(0.59248,0,0,0.2462,162.96,751.05)"
         d="m -82.845531,836.29205 c 0,26.58698 -10.525884,48.13998 -23.510219,48.13998 -12.98434,0 -23.51022,-21.553 -23.51022,-48.13998 0,-26.58697 10.52588,-48.13997 23.51022,-48.13997 12.984335,0 23.510219,21.553 23.510219,48.13997 z"
         sodipodi:type="arc"
         style="fill:#aaaaaa;fill-rule:evenodd;stroke:#3d3e44;stroke-width:5.69070005;stroke-linecap:round;stroke-linejoin:round"
         sodipodi:ry="48.139973"
         sodipodi:rx="23.51022"
         id="path3732" />
      <path
         sodipodi:cx="-106.35575"
         sodipodi:cy="836.29205"
         transform="matrix(0.41982,0,0,0.16959,156.97,789.4)"
         d="m -82.845531,836.29205 c 0,26.58698 -10.525884,48.13998 -23.510219,48.13998 -12.98434,0 -23.51022,-21.553 -23.51022,-48.13998 0,-26.58697 10.52588,-48.13997 23.51022,-48.13997 12.984335,0 23.510219,21.553 23.510219,48.13997 z"
         sodipodi:type="arc"
         style="fill:#f44800;fill-rule:evenodd;stroke:#3d3e44;stroke-width:8.14529991;stroke-linecap:round;stroke-linejoin:round"
         sodipodi:ry="48.139973"
         sodipodi:rx="23.51022"
         id="path3734" />
      <path
         sodipodi:cx="-106.35575"
         sodipodi:cy="836.29205"
         transform="matrix(0.28097,0,0,0.15075,39.982,802.35)"
         d="m -82.845531,836.29205 c 0,26.58698 -10.525884,48.13998 -23.510219,48.13998 -12.98434,0 -23.51022,-21.553 -23.51022,-48.13998 0,-26.58697 10.52588,-48.13997 23.51022,-48.13997 12.984335,0 23.510219,21.553 23.510219,48.13997 z"
         sodipodi:type="arc"
         style="fill:#f44800;fill-rule:evenodd;stroke:#3d3e44;stroke-width:10.56000042;stroke-linecap:round;stroke-linejoin:round"
         sodipodi:ry="48.139973"
         sodipodi:rx="23.51022"
         id="path3736" />
      <path
         d="m 9.7439,975.08 c 0,0 -1.7858,5.1074 3.3672,6.072 52.311,9.7926 90.302,6.072 90.302,6.072 l 26.019,-5.3714 c 4.1402,1.4804 1.2259,6.8052 0,11.21 0,0 -29.006,11.133 -82.037,5.3714 -14.292,-1.5526 -33.779,-5.6135 -41.631,-9.108 -2.9561,-1.3157 -2.544,-5.1521 -1.8367,-7.7068 0.71358,-2.5773 5.8161,-6.5391 5.8161,-6.5391 z"
         style="fill:#eeeeee;stroke:#3d3e44;stroke-width:2.17339993"
         sodipodi:nodetypes="cscccsssc"
         id="path3615"
         inkscape:connector-curvature="0" />
      <path
         d="m 175.61,862.66 -42.664,-2.0291 c -3.793,0.19242 -1.834,0.82034 -1.834,3.7051 l -1.1675,25.919 c 0,2.8847 2.8975,5.5827 6.6906,5.3903 l 43.671,-4.6491 c 3.793,-0.19242 6.4988,-4.3192 6.4988,-7.2039 l -4.4255,-17.068 c 0,-2.8847 -2.9756,-4.2564 -6.7686,-4.064 z"
         style="fill:#cccccf;fill-rule:evenodd;stroke:#3d3e44;stroke-width:1.95840001;stroke-linecap:round;stroke-linejoin:round"
         sodipodi:nodetypes="ccccccccc"
         id="path4236"
         inkscape:connector-curvature="0" />
      <path
         d="m 212.01,864.74 -25.973,-1.4095 c -2.6546,0.13366 -0.89494,1.5618 0.65943,5.2188 l 1.9031,18.004 c 0,2.0038 -0.69232,3.878 1.9622,3.7443 l 22.014,-3.2295 c 2.6546,-0.13366 4.1596,-0.35514 4.1596,-2.359 l -2.7086,-18.469 c 0,-2.0038 0.6377,-1.6341 -2.0169,-1.5004 z"
         style="fill:#cccccf;fill-rule:evenodd;stroke:#3d3e44;stroke-width:1.36539996;stroke-linecap:round;stroke-linejoin:round"
         sodipodi:nodetypes="ccccccccc"
         id="path4238"
         inkscape:connector-curvature="0" />
      <path
         d="m 232.39,866.7 -13.855,-0.96897 c -1.4161,0.0919 -0.47742,1.0736 0.35178,3.5877 l 1.0152,12.377 c 0,1.3776 -0.36933,2.666 1.0468,2.5741 l 11.744,-2.2201 c 1.4161,-0.0919 2.219,-0.24414 2.219,-1.6217 l -1.445,-12.697 c 0,-1.3776 0.34019,-1.1234 -1.0759,-1.0315 z"
         style="fill:#cccccf;fill-rule:evenodd;stroke:#3d3e44;stroke-width:0.82690001;stroke-linecap:round;stroke-linejoin:round"
         sodipodi:nodetypes="ccccccccc"
         id="path4240"
         inkscape:connector-curvature="0" />
      <path
         d="m 156.37,924.95 9.9646,-1.2969 0.26929,-1.7292 5.6555,1.7292 -3.2317,2.3777 -12.658,-1.0808 z"
         style="fill:#cccccf;stroke:#000000;stroke-width:0.21551px"
         id="path4242"
         inkscape:connector-curvature="0" />
      <path
         d="m 191.28,916.3 7.5375,-0.98103 0.2037,-1.3081 4.278,1.3081 -2.4446,1.7986 -9.5747,-0.81755 z"
         style="fill:#cccccf;stroke:#000000;stroke-width:0.16302px"
         id="path4244"
         inkscape:connector-curvature="0" />
      <path
         d="m 128.6,978.69 1.0991,-78.556 54.955,-6.5464 -1.0991,58.917 -29.676,6.5464 -3.2973,14.963 -21.982,4.676 z"
         style="fill:none;stroke:#505a88;stroke-width:0.90559px"
         sodipodi:nodetypes="ccccccc"
         id="path4246"
         inkscape:connector-curvature="0" />
      <path
         d="m 187.95,894.52 v 79.491 l 28.577,-11.222 v -73.88 l -23.081,3.7408"
         style="fill:none;stroke:#1d275c;stroke-width:0.90559px"
         id="path4248"
         inkscape:connector-curvature="0" />
      <path
         sodipodi:cx="-106.35575"
         sodipodi:cy="836.29205"
         transform="matrix(0.59248,0,0,0.2462,162.96,751.05)"
         d="m -82.845531,836.29205 c 0,26.58698 -10.525884,48.13998 -23.510219,48.13998 -12.98434,0 -23.51022,-21.553 -23.51022,-48.13998 0,-26.58697 10.52588,-48.13997 23.51022,-48.13997 12.984335,0 23.510219,21.553 23.510219,48.13997 z"
         sodipodi:type="arc"
         style="fill:url(#radialGradient4224);fill-rule:evenodd;stroke:#3d3e44;stroke-width:5.69070005;stroke-linecap:round;stroke-linejoin:round"
         sodipodi:ry="48.139973"
         sodipodi:rx="23.51022"
         id="path4250" />
      <path
         sodipodi:cx="-106.35575"
         sodipodi:cy="836.29205"
         transform="matrix(-0.32738,0,0,0.21375,-22.796,770.71)"
         d="m -82.845531,836.29205 c 0,26.58698 -10.525884,48.13998 -23.510219,48.13998 -12.98434,0 -23.51022,-21.553 -23.51022,-48.13998 0,-26.58697 10.52588,-48.13997 23.51022,-48.13997 12.984335,0 23.510219,21.553 23.510219,48.13997 z"
         sodipodi:type="arc"
         style="fill:#aaaaaa;fill-rule:evenodd;stroke:#3d3e44;stroke-width:5.69070005;stroke-linecap:round;stroke-linejoin:round"
         sodipodi:ry="48.139973"
         sodipodi:rx="23.51022"
         id="path4260" />
      <path
         sodipodi:cx="-106.35575"
         sodipodi:cy="836.29205"
         transform="matrix(-0.32738,0,0,0.21375,-22.796,770.71)"
         d="m -82.845531,836.29205 c 0,26.58698 -10.525884,48.13998 -23.510219,48.13998 -12.98434,0 -23.51022,-21.553 -23.51022,-48.13998 0,-26.58697 10.52588,-48.13997 23.51022,-48.13997 12.984335,0 23.510219,21.553 23.510219,48.13997 z"
         sodipodi:type="arc"
         style="fill:url(#radialGradient4226);fill-rule:evenodd;stroke:#3d3e44;stroke-width:5.69070005;stroke-linecap:round;stroke-linejoin:round"
         sodipodi:ry="48.139973"
         sodipodi:rx="23.51022"
         id="path4262" />
      <rect
         x="223.62"
         y="915.81"
         width="12.154"
         height="1.1267"
         ry="0.56334001"
         transform="matrix(0.9984,-0.056606,0,1,0,0)"
         style="opacity:0.45788999;fill:#000000;fill-rule:evenodd;stroke-width:0"
         id="rect4266" />
      <rect
         x="224.2"
         y="917.88"
         width="11.19"
         height="0.75111997"
         ry="0.37555999"
         transform="matrix(0.9984,-0.056606,0,1,0,0)"
         style="opacity:0.45788999;fill:#000000;fill-rule:evenodd;stroke-width:0"
         id="rect4268" />
      <rect
         x="223.62"
         y="919.57001"
         width="12.926"
         height="0.93889999"
         ry="0.37555999"
         transform="matrix(0.9984,-0.056606,0,1,0,0)"
         style="opacity:0.45788999;fill:#000000;fill-rule:evenodd;stroke-width:0"
         id="rect4270" />
      <rect
         x="223.81"
         y="922.20001"
         width="12.733"
         height="1.5022"
         ry="0.37555999"
         transform="matrix(0.9984,-0.056606,0,1,0,0)"
         style="opacity:0.45788999;fill:#000000;fill-rule:evenodd;stroke-width:0"
         id="rect4272" />
      <rect
         x="223.62"
         y="920.83002"
         width="12.154"
         height="1.1267"
         transform="matrix(0.9984,-0.056606,0,1,0,0)"
         style="opacity:0.45788999;fill:#000000;fill-rule:evenodd;stroke-width:0"
         ry="0.56334001"
         id="rect4274" />
      <rect
         x="224.2"
         y="922.89001"
         width="11.19"
         height="0.75111997"
         transform="matrix(0.9984,-0.056606,0,1,0,0)"
         style="opacity:0.45788999;fill:#000000;fill-rule:evenodd;stroke-width:0"
         ry="0.37555999"
         id="rect4276" />
      <rect
         x="223.62"
         y="924.58002"
         width="12.926"
         height="0.93889999"
         transform="matrix(0.9984,-0.056606,0,1,0,0)"
         style="opacity:0.45788999;fill:#000000;fill-rule:evenodd;stroke-width:0"
         ry="0.37555999"
         id="rect4278" />
      <rect
         x="223.81"
         y="927.21002"
         width="12.733"
         height="1.5022"
         transform="matrix(0.9984,-0.056606,0,1,0,0)"
         style="opacity:0.45788999;fill:#000000;fill-rule:evenodd;stroke-width:0"
         ry="0.37555999"
         id="rect4280" />
      <path
         d="m 34.677,861.58 29.246,-0.8303 c 3.9754,0.22612 1.6803,1.267 1.6803,4.6571 l -8.4264,28.91 c 0,3.3901 -5.765,6.249 -9.7404,6.0229 l -29.979,-0.1049 c -3.9754,-0.22612 -3.1458,-1.5787 -3.1458,-4.9688 l 13.189,-27.975 c 0,-3.3901 3.2004,-5.9373 7.1758,-5.7111 z"
         style="fill:#eeeeee;fill-rule:evenodd;stroke:#3d3e44;stroke-width:2.17339993;stroke-linecap:round;stroke-linejoin:round"
         sodipodi:nodetypes="ccccccccc"
         id="path4284"
         inkscape:connector-curvature="0" />
      <path
         d="m 77.829,861.41 40.236,-0.76099 c 3.6436,0.20725 6.2411,3.7326 6.2411,6.8398 l -3.3579,25.068 c 0,3.1071 -4.2764,6.0131 -7.92,5.8059 l -48.295,1.0467 c -3.6436,-0.20725 -2.8832,-1.447 -2.8832,-4.5541 l 8.7305,-29.068 c 0,-3.1071 3.6049,-4.5846 7.2484,-4.3773 z"
         style="fill:#eeeeee;fill-rule:evenodd;stroke:#3d3e44;stroke-width:1.99199998;stroke-linecap:round;stroke-linejoin:round"
         sodipodi:nodetypes="ccccccccc"
         id="path4286"
         inkscape:connector-curvature="0" />
      <path
         d="m 175.61,862.66 -42.664,-2.0291 c -3.793,0.19242 -1.834,0.82034 -1.834,3.7051 l -1.1675,25.919 c 0,2.8847 2.8975,5.5827 6.6906,5.3903 l 43.671,-4.6491 c 3.793,-0.19242 6.4988,-4.3192 6.4988,-7.2039 l -4.4255,-17.068 c 0,-2.8847 -2.9756,-4.2564 -6.7686,-4.064 z"
         style="fill:#eeeeee;fill-rule:evenodd;stroke:#3d3e44;stroke-width:1.95840001;stroke-linecap:round;stroke-linejoin:round"
         sodipodi:nodetypes="ccccccccc"
         id="path4288"
         inkscape:connector-curvature="0" />
      <path
         d="m 212.01,864.74 -25.973,-1.4095 c -2.6546,0.13366 -0.89494,1.5618 0.65943,5.2188 l 1.9031,18.004 c 0,2.0038 -0.69232,3.878 1.9622,3.7443 l 22.014,-3.2295 c 2.6546,-0.13366 4.1596,-0.35514 4.1596,-2.359 l -2.7086,-18.469 c 0,-2.0038 0.6377,-1.6341 -2.0169,-1.5004 z"
         style="fill:#eeeeee;fill-rule:evenodd;stroke:#3d3e44;stroke-width:1.36539996;stroke-linecap:round;stroke-linejoin:round"
         sodipodi:nodetypes="ccccccccc"
         id="path4290"
         inkscape:connector-curvature="0" />
      <path
         d="m 232.39,866.7 -13.855,-0.96897 c -1.4161,0.0919 -0.47742,1.0736 0.35178,3.5877 l 1.0152,12.377 c 0,1.3776 -0.36933,2.666 1.0468,2.5741 l 11.744,-2.2201 c 1.4161,-0.0919 2.219,-0.24414 2.219,-1.6217 l -1.445,-12.697 c 0,-1.3776 0.34019,-1.1234 -1.0759,-1.0315 z"
         style="fill:#eeeeee;fill-rule:evenodd;stroke:#3d3e44;stroke-width:0.82690001;stroke-linecap:round;stroke-linejoin:round"
         sodipodi:nodetypes="ccccccccc"
         id="path4292"
         inkscape:connector-curvature="0" />
    </g>
    <flowRoot
       xml:space="preserve"
       id="flowRoot3253"
       style="font-size:40px;font-style:normal;font-weight:normal;line-height:125%;letter-spacing:0px;word-spacing:0px;fill:#000000;fill-opacity:1;stroke:none;font-family:Sans"><flowRegion
         id="flowRegion3255"><rect
           id="rect3257"
           width="66.670067"
           height="56.568542"
           x="256.57874"
           y="642.24023" /></flowRegion><flowPara
         id="flowPara3259" /></flowRoot>  </g>
</svg>
